<!DOCTYPE svg PUBLIC "-//W3C//DTD SVG 1.1//EN" "http://www.w3.org/Graphics/SVG/1.1/DTD/svg11.dtd">
<svg xmlns="http://www.w3.org/2000/svg" xmlns:xlink="http://www.w3.org/1999/xlink" width="545px" height="315px" version="1.1"><defs><linearGradient x1="0%" y1="0%" x2="0%" y2="100%" id="mx-gradient-ffffff-1-000099-1-s-0"><stop offset="0%" style="stop-color:#ffffff"/><stop offset="100%" style="stop-color:#000099"/></linearGradient></defs><g transform="translate(0.5,0.5)"><rect x="2" y="2" width="540" height="310" rx="46.5" ry="46.5" fill-opacity="0.5" fill="#f8cecc" stroke="#b85450" stroke-opacity="0.5" stroke-width="3" pointer-events="none"/><path d="M 162 77 L 177 77 Q 187 77 193.32 77 L 199.65 77" fill="none" stroke="#000000" stroke-width="3" stroke-miterlimit="10" transform="translate(2,3)" opacity="0.25"/><path d="M 162 77 L 177 77 Q 187 77 193.32 77 L 199.65 77" fill="none" stroke="#00cc00" stroke-width="3" stroke-miterlimit="10" pointer-events="none"/><path d="M 208.65 77 L 199.65 81.5 L 199.65 72.5 Z" fill="#00cc00" stroke="#00cc00" stroke-width="3" stroke-miterlimit="10" pointer-events="none"/><rect x="42" y="47" width="120" height="60" rx="9" ry="9" fill="url(#mx-gradient-ffffff-1-000099-1-s-0)" stroke="#000000" stroke-width="3" pointer-events="none"/><path d="M 162 157 L 177 157 Q 187 157 193.32 157 L 199.65 157" fill="none" stroke="#000000" stroke-width="3" stroke-miterlimit="10" transform="translate(2,3)" opacity="0.25"/><path d="M 162 157 L 177 157 Q 187 157 193.32 157 L 199.65 157" fill="none" stroke="#00cc00" stroke-width="3" stroke-miterlimit="10" pointer-events="none"/><path d="M 208.65 157 L 199.65 161.5 L 199.65 152.5 Z" fill="#00cc00" stroke="#00cc00" stroke-width="3" stroke-miterlimit="10" pointer-events="none"/><rect x="42" y="127" width="120" height="60" rx="9" ry="9" fill="url(#mx-gradient-ffffff-1-000099-1-s-0)" stroke="#000000" stroke-width="3" pointer-events="none"/><path d="M 162 237 L 177 237 Q 187 237 193.32 237 L 199.65 237" fill="none" stroke="#000000" stroke-width="3" stroke-miterlimit="10" transform="translate(2,3)" opacity="0.25"/><path d="M 162 237 L 177 237 Q 187 237 193.32 237 L 199.65 237" fill="none" stroke="#00cc00" stroke-width="3" stroke-miterlimit="10" pointer-events="none"/><path d="M 208.65 237 L 199.65 241.5 L 199.65 232.5 Z" fill="#00cc00" stroke="#00cc00" stroke-width="3" stroke-miterlimit="10" pointer-events="none"/><rect x="42" y="207" width="120" height="60" rx="9" ry="9" fill="url(#mx-gradient-ffffff-1-000099-1-s-0)" stroke="#000000" stroke-width="3" pointer-events="none"/><path d="M 332 77 L 342 77 Q 352 77 355.82 77 L 359.65 77" fill="none" stroke="#000000" stroke-width="3" stroke-miterlimit="10" transform="translate(2,3)" opacity="0.25"/><path d="M 332 77 L 342 77 Q 352 77 355.82 77 L 359.65 77" fill="none" stroke="#00cc00" stroke-width="3" stroke-miterlimit="10" pointer-events="none"/><path d="M 368.65 77 L 359.65 81.5 L 359.65 72.5 Z" fill="#00cc00" stroke="#00cc00" stroke-width="3" stroke-miterlimit="10" pointer-events="none"/><rect x="212" y="47" width="120" height="60" rx="9" ry="9" fill="#d5e8d4" stroke="#82b366" stroke-width="3" pointer-events="none"/><path d="M 332 157 L 342 157 Q 352 157 355.82 157 L 359.65 157" fill="none" stroke="#000000" stroke-width="3" stroke-miterlimit="10" transform="translate(2,3)" opacity="0.25"/><path d="M 332 157 L 342 157 Q 352 157 355.82 157 L 359.65 157" fill="none" stroke="#00cc00" stroke-width="3" stroke-miterlimit="10" pointer-events="none"/><path d="M 368.65 157 L 359.65 161.5 L 359.65 152.5 Z" fill="#00cc00" stroke="#00cc00" stroke-width="3" stroke-miterlimit="10" pointer-events="none"/><rect x="212" y="127" width="120" height="60" rx="9" ry="9" fill="#d5e8d4" stroke="#82b366" stroke-width="3" pointer-events="none"/><path d="M 332 237 L 342 237 Q 352 237 355.82 237 L 359.65 237" fill="none" stroke="#000000" stroke-width="3" stroke-miterlimit="10" transform="translate(2,3)" opacity="0.25"/><path d="M 332 237 L 342 237 Q 352 237 355.82 237 L 359.65 237" fill="none" stroke="#00cc00" stroke-width="3" stroke-miterlimit="10" pointer-events="none"/><path d="M 368.65 237 L 359.65 241.5 L 359.65 232.5 Z" fill="#00cc00" stroke="#00cc00" stroke-width="3" stroke-miterlimit="10" pointer-events="none"/><rect x="212" y="207" width="120" height="60" rx="9" ry="9" fill="#d5e8d4" stroke="#82b366" stroke-width="3" pointer-events="none"/><rect x="372" y="47" width="120" height="60" rx="9" ry="9" fill="#f8cecc" stroke="#b85450" stroke-width="3" pointer-events="none"/><rect x="372" y="127" width="120" height="60" rx="9" ry="9" fill="#f8cecc" stroke="#b85450" stroke-width="3" pointer-events="none"/><rect x="372" y="207" width="120" height="60" rx="9" ry="9" fill="#f8cecc" stroke="#b85450" stroke-width="3" pointer-events="none"/></g></svg>